<svg width="73" height="23" viewBox="0 0 73 23" fill="none" xmlns="http://www.w3.org/2000/svg">
<path d="M7.33337 16.9148L11.5441 5.715H14.4789L18.6896 16.9148H16.1217L15.3401 14.7108H10.5712L9.78963 16.9148H7.33337ZM11.257 12.7516H14.6543L13.6814 9.99249C13.6388 9.87276 13.5857 9.73127 13.5219 9.568C13.4687 9.39386 13.4102 9.20338 13.3464 8.99658C13.2826 8.78979 13.2188 8.58843 13.155 8.39251C13.1019 8.18571 13.0487 8.00068 12.9955 7.83742H12.8998C12.8467 8.04422 12.7775 8.28911 12.6925 8.5721C12.6074 8.84421 12.5224 9.11087 12.4373 9.37209C12.3522 9.62243 12.2831 9.82923 12.2299 9.99249L11.257 12.7516Z" fill="#0D0D0D"></path>
<path d="M19.1622 16.9148V5.11093H21.3792V16.9148H19.1622Z" fill="#0D0D0D"></path>
<path d="M22.7765 16.9148V5.11093H24.9935V16.9148H22.7765Z" fill="#0D0D0D"></path>
<path d="M30.8407 17.1107C30.2027 17.1107 29.5966 17.0454 29.0224 16.9148C28.4482 16.7842 27.9378 16.5774 27.4912 16.2944C27.0553 16.0006 26.7097 15.6359 26.4545 15.2006C26.2099 14.7543 26.0876 14.2156 26.0876 13.5843C26.0876 13.5298 26.0876 13.4754 26.0876 13.421C26.0876 13.3557 26.093 13.3067 26.1036 13.2741H28.4641C28.4535 13.3067 28.4482 13.3503 28.4482 13.4047C28.4482 13.4591 28.4482 13.5081 28.4482 13.5516C28.4482 13.8999 28.5386 14.1938 28.7193 14.4332C28.9107 14.6727 29.1872 14.8523 29.5487 14.972C29.9103 15.0917 30.3303 15.1516 30.8088 15.1516C31.1171 15.1516 31.3883 15.1353 31.6222 15.1026C31.8668 15.0591 32.0794 15.0047 32.2602 14.9393C32.4516 14.8632 32.6058 14.7761 32.7227 14.6781C32.8503 14.5802 32.9407 14.4659 32.9939 14.3353C33.0577 14.2047 33.0896 14.0577 33.0896 13.8945C33.0896 13.6006 32.9939 13.3611 32.8025 13.1761C32.6217 12.9911 32.3665 12.8333 32.0369 12.7026C31.7179 12.572 31.3564 12.4523 30.9523 12.3435C30.5482 12.2346 30.1336 12.1258 29.7082 12.0169C29.2829 11.8972 28.8682 11.7557 28.4641 11.5925C28.0601 11.4183 27.6986 11.2115 27.3796 10.9721C27.0606 10.7326 26.8054 10.4279 26.614 10.0578C26.4226 9.68773 26.3269 9.24148 26.3269 8.71904C26.3269 8.16394 26.4385 7.68504 26.6618 7.28233C26.8958 6.87961 27.2201 6.54764 27.6348 6.28642C28.0495 6.0252 28.5279 5.83473 29.0702 5.715C29.6125 5.58439 30.2027 5.51909 30.8407 5.51909C31.4361 5.51909 31.9997 5.58439 32.5313 5.715C33.063 5.83473 33.5308 6.03065 33.9349 6.30275C34.339 6.57485 34.6526 6.91771 34.8759 7.33131C35.1099 7.7449 35.2268 8.23469 35.2268 8.80067V8.99658H32.9141V8.86597C32.9141 8.5721 32.8291 8.32177 32.6589 8.11497C32.4888 7.90817 32.2496 7.7449 31.9412 7.62518C31.6328 7.50545 31.2713 7.44559 30.8566 7.44559C30.41 7.44559 30.0272 7.48913 29.7082 7.5762C29.3999 7.66327 29.1606 7.79388 28.9905 7.96803C28.831 8.13129 28.7512 8.32721 28.7512 8.55578C28.7512 8.817 28.8416 9.03468 29.0224 9.20883C29.2138 9.37209 29.469 9.51903 29.788 9.64964C30.1176 9.76936 30.4844 9.8782 30.8885 9.97616C31.2926 10.0741 31.7073 10.183 32.1326 10.3027C32.5579 10.4224 32.9726 10.5639 33.3767 10.7272C33.7807 10.8904 34.1423 11.0972 34.4613 11.3476C34.7802 11.587 35.0354 11.8863 35.2268 12.2455C35.4182 12.6047 35.5139 13.0346 35.5139 13.5353C35.5139 14.3951 35.3119 15.0863 34.9078 15.6087C34.5038 16.1312 33.9509 16.5121 33.2491 16.7516C32.5473 16.991 31.7445 17.1107 30.8407 17.1107Z" fill="#0D0D0D"></path>
<path d="M40.2623 17.1107C39.3692 17.1107 38.6195 16.9529 38.0134 16.6373C37.4073 16.3108 36.9448 15.8155 36.6258 15.1516C36.3174 14.4768 36.1633 13.6332 36.1633 12.621C36.1633 11.587 36.3174 10.7435 36.6258 10.0904C36.9448 9.42651 37.4073 8.93128 38.0134 8.60475C38.6302 8.27823 39.3798 8.11497 40.2623 8.11497C40.8365 8.11497 41.3522 8.18571 41.8095 8.32721C42.2773 8.4687 42.6814 8.68639 43.0216 8.98026C43.3619 9.27413 43.6171 9.63875 43.7872 10.0741C43.968 10.4986 44.0584 11.0047 44.0584 11.5925H41.8414C41.8414 11.2006 41.7829 10.8795 41.6659 10.6292C41.549 10.3789 41.3682 10.1884 41.1236 10.0578C40.8897 9.92718 40.592 9.86188 40.2304 9.86188C39.8051 9.86188 39.4595 9.95984 39.1937 10.1558C38.9279 10.3517 38.7312 10.6401 38.6036 11.021C38.476 11.402 38.4122 11.8755 38.4122 12.4414V12.8169C38.4122 13.372 38.476 13.84 38.6036 14.221C38.7418 14.6019 38.9491 14.8904 39.2256 15.0863C39.5021 15.2713 39.8636 15.3638 40.3102 15.3638C40.6717 15.3638 40.9694 15.2985 41.2034 15.1679C41.4479 15.0373 41.634 14.8414 41.7616 14.5802C41.8892 14.319 41.953 14.0033 41.953 13.6332H44.0584C44.0584 14.1883 43.968 14.6836 43.7872 15.1189C43.6171 15.5543 43.3619 15.9189 43.0216 16.2128C42.692 16.5067 42.2933 16.7298 41.8254 16.8822C41.3576 17.0346 40.8365 17.1107 40.2623 17.1107Z" fill="#0D0D0D"></path>
<path d="M47.3 17.1107C47.0236 17.1107 46.7258 17.0781 46.4069 17.0128C46.0985 16.9475 45.8061 16.8332 45.5296 16.6699C45.2532 16.4958 45.0245 16.2509 44.8438 15.9353C44.6736 15.6087 44.5886 15.1951 44.5886 14.6945C44.5886 14.0958 44.7162 13.6006 44.9714 13.2088C45.2266 12.8169 45.5881 12.5122 46.056 12.2945C46.5345 12.0659 47.1033 11.9081 47.7626 11.821C48.4218 11.734 49.1502 11.6904 49.9477 11.6904V11.0537C49.9477 10.8034 49.9052 10.5857 49.8201 10.4006C49.7457 10.2156 49.6074 10.0687 49.4054 9.95984C49.214 9.85099 48.9429 9.79657 48.592 9.79657C48.2411 9.79657 47.954 9.84011 47.7307 9.92718C47.518 10.0143 47.3638 10.1285 47.2681 10.27C47.1831 10.4006 47.1405 10.5476 47.1405 10.7108V10.9068H44.9873C44.9767 10.8523 44.9714 10.8034 44.9714 10.7598C44.9714 10.7054 44.9714 10.6401 44.9714 10.5639C44.9714 10.0632 45.1202 9.63331 45.418 9.27413C45.7157 8.90407 46.1357 8.62108 46.678 8.42516C47.2203 8.22925 47.853 8.13129 48.576 8.13129C49.3522 8.13129 50.0009 8.23469 50.5219 8.44149C51.0535 8.64829 51.4576 8.95305 51.7341 9.35576C52.0212 9.75848 52.1647 10.2646 52.1647 10.8741V14.7761C52.1647 14.972 52.2179 15.1189 52.3242 15.2169C52.4412 15.304 52.5688 15.3475 52.707 15.3475H53.2333V16.8332C53.127 16.8876 52.9622 16.942 52.7389 16.9965C52.5156 17.0618 52.2445 17.0944 51.9255 17.0944C51.6171 17.0944 51.3406 17.0454 51.0961 16.9475C50.8621 16.8604 50.6654 16.7352 50.5059 16.572C50.3464 16.3978 50.2348 16.191 50.171 15.9516H50.0593C49.8786 16.1801 49.6553 16.3815 49.3895 16.5557C49.1343 16.7298 48.8312 16.8658 48.4803 16.9638C48.1401 17.0618 47.7466 17.1107 47.3 17.1107ZM48.0497 15.3965C48.3474 15.3965 48.6132 15.3529 48.8472 15.2659C49.0811 15.1679 49.2778 15.0427 49.4373 14.8904C49.5968 14.7271 49.7191 14.5312 49.8041 14.3026C49.8998 14.0741 49.9477 13.8292 49.9477 13.5679V13.0945C49.3522 13.0945 48.8206 13.138 48.3527 13.2251C47.8849 13.3013 47.5127 13.4373 47.2362 13.6332C46.9704 13.8292 46.8375 14.1013 46.8375 14.4496C46.8375 14.6455 46.8853 14.8142 46.981 14.9557C47.0767 15.0972 47.215 15.206 47.3957 15.2822C47.5765 15.3584 47.7945 15.3965 48.0497 15.3965Z" fill="#0D0D0D"></path>
<path d="M53.6971 16.9148V5.11093H55.9141V16.9148H53.6971Z" fill="#0D0D0D"></path>
<path d="M61.1233 17.1107C60.1983 17.1107 59.422 16.9529 58.7947 16.6373C58.1673 16.3108 57.6942 15.8155 57.3752 15.1516C57.0562 14.4877 56.8967 13.6441 56.8967 12.621C56.8967 11.587 57.0562 10.7435 57.3752 10.0904C57.6942 9.42651 58.162 8.93672 58.7787 8.62108C59.4061 8.29455 60.1717 8.13129 61.0755 8.13129C61.9261 8.13129 62.6439 8.28911 63.2287 8.60475C63.8135 8.90951 64.2548 9.38842 64.5525 10.0415C64.8503 10.6836 64.9991 11.5163 64.9991 12.5394V13.1271H59.1456C59.1668 13.6278 59.2413 14.0523 59.3689 14.4006C59.5071 14.7489 59.7145 15.0101 59.9909 15.1842C60.278 15.3475 60.6555 15.4291 61.1233 15.4291C61.3785 15.4291 61.6072 15.3965 61.8092 15.3312C62.0218 15.2659 62.2026 15.1679 62.3515 15.0373C62.5003 14.9067 62.6173 14.7434 62.7024 14.5475C62.7874 14.3516 62.83 14.1285 62.83 13.8781H64.9991C64.9991 14.4223 64.9034 14.8958 64.712 15.2985C64.5206 15.7012 64.2548 16.0387 63.9146 16.3108C63.5743 16.572 63.1649 16.7733 62.6864 16.9148C62.2186 17.0454 61.6975 17.1107 61.1233 17.1107ZM59.1775 11.6904H62.7183C62.7183 11.3639 62.6758 11.0809 62.5907 10.8415C62.5163 10.602 62.41 10.4061 62.2717 10.2537C62.1335 10.1013 61.9634 9.99249 61.7613 9.92718C61.5699 9.85099 61.352 9.8129 61.1074 9.8129C60.7033 9.8129 60.3631 9.88365 60.0866 10.0251C59.8208 10.1558 59.6134 10.3625 59.4646 10.6455C59.3263 10.9176 59.2306 11.2659 59.1775 11.6904Z" fill="#0D0D0D"></path>
<path d="M72.6655 15.6442C72.6655 17.9466 72.6655 19.0978 72.2174 19.9772C71.8233 20.7507 71.1944 21.3796 70.4209 21.7737C69.5415 22.2218 68.3902 22.2219 66.0878 22.2219H65.0223V19.4441H67.7896C68.5112 19.4441 68.872 19.4441 69.1495 19.3082C69.4152 19.178 69.6301 18.9631 69.7603 18.6974C69.8963 18.4199 69.8963 18.0591 69.8963 17.3375V15.1109H72.6655V15.6442ZM7.53243 2.77773H4.8759C4.15433 2.77773 3.79353 2.77773 3.516 2.91369C3.25028 3.04387 3.03541 3.25874 2.90523 3.52447C2.76927 3.802 2.76927 4.16279 2.76927 4.88436V7.55544H0V6.5777C0 4.27529 4.93824e-05 3.12405 0.448127 2.24465C0.842261 1.47113 1.47113 0.842261 2.24465 0.448127C3.12405 4.93824e-05 4.27529 0 6.5777 0H7.53243V2.77773Z" fill="#009859"></path>
</svg>